<?xml version="1.0" encoding="UTF-8"?>
<svg width="44px" height="44px" viewBox="0 0 44 44" version="1.1" xmlns="http://www.w3.org/2000/svg" xmlns:xlink="http://www.w3.org/1999/xlink">
    <!-- Generator: Sketch 49 (51002) - http://www.bohemiancoding.com/sketch -->
    <title>siren</title>
    <desc>Created with Sketch.</desc>
    <defs></defs>
    <g id="Page-1" stroke="none" stroke-width="1" fill="none" fill-rule="evenodd">
        <g id="Icons" transform="translate(-52.000000, -65.000000)" fill-rule="nonzero">
            <g id="siren" transform="translate(52.000000, 65.000000)">
                <circle id="Oval" fill="#FFFFFF" cx="22" cy="22" r="22"></circle>
                <path d="M24.2132782,9.36436609 C24.0203408,9.33043461 23.090133,9.17666004 22,9.17666004 C20.909867,9.17666004 19.9796592,9.32971266 19.7867218,9.36436609 C19.6759478,9.38385864 19.6333989,9.27701058 19.7177632,9.21492319 C19.7940578,9.15933332 21.9992664,7.50752008 21.9992664,7.50752008 L24.280036,9.21492319 C24.3658675,9.27701058 24.3240522,9.38385864 24.2132782,9.36436609 Z M20.4029477,20.089601 C20.4029477,20.089601 20.286305,20.130752 20.2554937,20.2318245 C20.7176631,20.5812465 21.0360466,21.3761094 22,21.3761094 C22.9639534,21.3761094 23.2823369,20.5812465 23.7437727,20.2318245 C23.713695,20.13003 23.5970523,20.089601 23.5970523,20.089601 C23.5970523,20.089601 22.9932975,20.2296586 22,20.2296586 C21.0067025,20.2296586 20.4029477,20.089601 20.4029477,20.089601 Z M22,18.7518345 C21.7322352,18.7518345 21.673547,18.6522059 21.49088,18.6529278 C21.3170162,18.6536498 20.9795592,18.7900976 20.9061989,18.9149943 C20.9113342,18.9785256 20.9348094,19.0355594 20.98176,19.0860956 C21.3720364,19.1438513 21.548101,19.3575474 22.0007336,19.3575474 C22.4533662,19.3575474 22.6286972,19.1438513 23.0197072,19.0860956 C23.0651906,19.0355594 23.090133,18.9792476 23.0952683,18.9149943 C23.0226416,18.7900976 22.684451,18.6543717 22.5098536,18.6529278 C22.326453,18.6514839 22.2670312,18.7518345 22,18.7518345 Z M43.9757911,22.8474361 C43.9479142,23.3650716 43.9009637,23.8783755 43.8364067,24.3859038 C41.3450932,24.7916376 40.4545,22.607028 37.9022975,22.7167638 C38.0548868,23.2495602 38.1788656,23.7924639 38.2742339,24.3469187 C40.3789389,24.3454748 41.2269832,26.2817349 43.5686418,25.9965661 C43.4453966,26.5885621 43.297209,27.1726167 43.1262796,27.7480079 C41.2746674,27.9270506 40.6224949,26.1164092 38.4796425,26.1662235 C38.497249,26.4665531 38.5067858,26.7697706 38.5067858,27.0758759 L38.4979826,27.5819602 L42.658975,29.1442521 C42.4410951,29.7268629 42.1975391,30.2964785 41.9319751,30.854543 C40.6811831,30.7866801 40.2498249,29.2077834 38.3468605,29.3334021 C38.2896395,29.738414 38.2170129,30.1383723 38.1304478,30.5332769 C39.7832539,30.4192094 40.139051,31.9165261 41.3230851,32.0378131 C41.0215746,32.5792729 40.6965887,33.1062937 40.3510621,33.6195976 C39.6497382,33.249961 39.0415819,32.1345539 37.7115609,32.065969 C37.8480109,31.6515718 37.9675881,31.231399 38.0688252,30.8040068 C36.8891927,30.8040068 35.540098,30.3513464 34.4088833,29.3377338 C34.7756844,27.2830745 31.535363,25.1908739 31.535363,23.6863378 C31.535363,22.0518512 32.3753376,21.1472524 32.3753376,18.9438722 C32.3753376,17.3086637 31.5683751,15.5348415 30.3513288,14.3226936 C30.1158425,14.0873391 29.8744873,13.8967453 29.5971856,13.725644 C30.7151956,15.0872348 31.5735103,16.7015068 31.5735103,18.5713479 C31.5735103,20.6462217 30.592684,21.7414143 30.592684,23.656738 C30.592684,25.5713397 33.439061,27.2282065 33.439061,29.2027298 C33.439061,29.9795441 33.1867018,30.7383097 32.3547968,32.2284069 C33.632732,33.4845936 35.2972757,34.1697207 36.3712695,34.1697207 C36.7197306,34.1697207 36.9067992,34.0650385 37.0315116,33.7957525 C37.1386175,33.5632857 37.2405882,33.3279312 37.3366901,33.0904109 C38.493581,33.1344496 39.0232419,34.1689987 39.6636767,34.581952 C39.3122812,35.0461635 38.9432792,35.4944922 38.5566708,35.928382 C38.1275134,35.4605608 37.550902,34.6736392 36.7065257,34.4548895 C36.5554036,34.743668 36.3954783,35.0288368 36.2274834,35.3082301 C36.9544833,35.5031556 37.4518657,36.2251019 37.8370069,36.7001426 C37.421788,37.1232032 36.9896962,37.528937 36.539998,37.9187881 C36.2590283,37.488508 35.8218013,36.9427166 35.331755,36.6481625 C35.1505552,36.8892926 34.9620194,37.1246471 34.7676148,37.3535041 C35.1843009,37.6314534 35.5518357,38.1317622 35.7917236,38.5396619 C35.2723332,38.9497275 34.7353363,39.3388565 34.1792657,39.7027175 C33.9048985,37.502947 30.8538464,35.995523 31.6762146,33.4434427 C31.406249,33.8932152 31.0841975,34.4556114 31.0841975,35.1327971 C31.0841975,36.9802578 33.0839975,38.4465308 33.2431892,40.2824404 C32.8287039,40.5264583 32.4046817,40.7560372 31.9725899,40.9733431 C31.9006969,38.955503 29.7835206,36.7470691 29.7835206,35.0909242 C29.7835206,33.2420196 32.2440228,31.3851736 32.2440228,29.2027298 C32.2440228,27.0188421 29.4049818,25.5070864 29.4049818,23.5895969 C29.4049818,21.6735513 30.6124912,20.5711393 30.6124912,18.1150778 C30.6124912,16.3159875 29.7439061,14.4952388 28.4021475,13.3321832 C28.1644603,13.1257066 27.9304412,12.9618247 27.6494715,12.8181574 C28.9149355,14.3118644 29.6485378,15.6669577 29.6485378,17.7230609 C29.6485378,20.0325673 28.2649638,21.314744 28.2649638,23.57588 C28.2649638,25.8377379 31.0511854,27.0953684 31.0511854,29.2034517 C31.0511854,31.3115351 28.4579012,33.088245 28.4579012,35.2540841 C28.4579012,37.2242757 30.7438061,39.1908575 30.7775518,41.5285198 C30.2779686,41.7429379 29.7688486,41.9385853 29.2509253,42.1161841 C29.5414319,39.7546976 26.9686885,37.3188507 26.9686885,35.3919758 C26.9686885,33.2853364 29.6588082,31.474695 29.6588082,29.2034517 C29.6588082,26.9307646 26.9239388,25.8745571 26.9239388,23.5419485 C26.9239388,21.2107837 28.6016873,19.9199437 28.6016873,17.3440391 C28.6016873,15.3363063 27.5944513,13.5307185 26.122845,12.4117016 L26.0296775,12.3423948 C25.8910267,12.2413223 25.7765847,12.3633312 25.8748875,12.4831743 C26.9166028,13.7631852 27.4734069,15.057635 27.4734069,16.9744025 C27.4734069,19.3308354 25.5462336,21.2454371 25.5462336,23.5282315 C25.5462336,26.2225353 28.1343826,26.992852 28.1343826,29.2034517 C28.1343826,31.4133295 25.359165,33.1813761 25.359165,35.5277018 C25.359165,37.7036481 27.9854613,40.1185586 27.5350295,42.6302099 C27.008303,42.764492 26.4742406,42.8814473 25.9321084,42.9767442 C26.4250892,39.8492726 23.8486778,37.6032975 23.8486778,35.5573016 C23.8486778,33.3423702 26.7229317,31.3678469 26.7229317,29.2034517 C26.7229317,27.1617875 24.660042,26.494709 24.3886092,24.4061183 C24.3511954,24.1209495 24.1186435,23.9094192 23.7980593,23.9621213 C23.3791724,24.0372037 22.8421755,24.3086555 21.9985328,24.3086555 C21.1548901,24.3086555 20.6178932,24.0364817 20.1982727,23.9621213 C19.8784221,23.9101411 19.6458702,24.1216714 19.6084564,24.4061183 C19.3377572,26.494709 17.2734002,27.1610655 17.2734002,29.2034517 C17.2734002,31.3678469 20.1483877,33.3416482 20.1483877,35.5573016 C20.1483877,37.6032975 17.5719764,39.8492726 18.0642235,42.9767442 C17.522825,42.8807253 16.9880289,42.76377 16.4613025,42.6302099 C16.0108707,40.1185586 18.6379006,37.7036481 18.6379006,35.5277018 C18.6379006,33.1813761 15.8619494,31.4133295 15.8619494,29.2034517 C15.8619494,26.992852 18.450832,26.2225353 18.450832,23.5282315 C18.450832,21.2454371 16.5229251,19.3315574 16.5229251,16.9744025 C16.5229251,15.0583569 17.0797292,13.7639071 18.1221781,12.4831743 C18.2197472,12.3633312 18.1060389,12.2413223 17.9666544,12.3423948 L17.8742205,12.4117016 C16.4040815,13.5278307 15.3975791,15.3334185 15.3975791,17.3411513 C15.3975791,19.9170559 17.0753276,21.2078959 17.0753276,23.5390607 C17.0753276,25.8709474 14.3404582,26.9271549 14.3404582,29.200564 C14.3404582,31.4718072 17.0305779,33.2824486 17.0305779,35.3890881 C17.0305779,37.3166848 14.4578345,39.7518098 14.7490747,42.1132964 C14.2304178,41.9356976 13.7212978,41.7393281 13.2217146,41.525632 C13.2561939,39.1879697 15.5406316,37.2206659 15.5406316,35.2511963 C15.5406316,33.0853573 12.9488146,31.3086473 12.9488146,29.200564 C12.9488146,27.0924806 15.733569,25.8348501 15.733569,23.5729922 C15.733569,21.3118562 14.3507286,20.0296795 14.3507286,17.7201731 C14.3507286,15.6640699 15.0835973,14.3089766 16.3490613,12.8152696 C16.067358,12.958937 15.8340725,13.1228188 15.5971189,13.3292954 C14.2553603,14.492351 13.3875088,16.3130997 13.3875088,18.11219 C13.3875088,20.5682515 14.5950182,21.6706635 14.5950182,23.5867092 C14.5950182,25.5041987 11.7559772,27.0159543 11.7559772,29.199842 C11.7559772,31.3822858 14.2164794,33.2398538 14.2164794,35.0880364 C14.2164794,36.7449033 12.0978359,38.9533372 12.0266764,40.9704553 C11.5945847,40.7531494 11.1705625,40.5235705 10.7560772,40.2795526 C10.9160025,38.4436431 12.9150689,36.97737 12.9150689,35.1299093 C12.9150689,34.4527236 12.593751,33.8903274 12.3230518,33.4405549 C13.14542,35.9926352 10.0943679,37.5000592 9.82000067,39.6998297 C9.26393011,39.3359688 8.72619961,38.9468397 8.20754277,38.5367741 C8.44669712,38.1295964 8.81423189,37.6285656 9.23165161,37.3506163 C9.03651339,37.1224812 8.84871119,36.8864048 8.66751142,36.6452747 C8.17673147,36.9398288 7.73877088,37.4856203 7.4585348,37.9159003 C7.01030378,37.5267712 6.57747841,37.1203154 6.1622595,36.6972548 C6.54740071,36.2222141 7.04478309,35.5002678 7.77178299,35.3053423 C7.60378806,35.025949 7.44386275,34.7415022 7.29274067,34.4520017 C6.4483644,34.6707514 5.87101937,35.457673 5.44259562,35.9254942 C5.0559872,35.4908825 4.68625163,35.0425538 4.33558972,34.5790643 C4.97602454,34.1661109 5.50568542,33.1308399 6.66184268,33.0875231 C6.75867818,33.3243215 6.8606489,33.559676 6.96775484,33.7928647 C7.09246724,34.0621507 7.28026943,34.1668329 7.62799693,34.1668329 C8.70199073,34.1668329 10.3658008,33.4817058 11.6444696,32.2255192 C10.8125646,30.7354219 10.5602054,29.9766563 10.5602054,29.199842 C10.5602054,27.2260407 13.4065824,25.5691738 13.4065824,23.6538502 C13.4065824,21.7385265 12.4257561,20.6433339 12.4257561,18.5684601 C12.4257561,16.698619 13.2840708,15.084347 14.4020808,13.7227562 C14.1247791,13.8938575 13.8834239,14.0844513 13.6479376,14.3198058 C12.4308913,15.5326757 11.6239288,17.3057759 11.6239288,18.9409844 C11.6239288,21.1443647 12.464637,22.0489634 12.464637,23.68345 C12.464637,25.1879862 9.22358198,27.2801867 9.59038314,29.334846 C8.45916836,30.3484587 7.11007369,30.801119 5.92970756,30.801119 C6.03241188,31.2285113 6.15198906,31.648684 6.28697189,32.0630812 C4.95768448,32.1323881 4.34952816,33.2477952 3.64747074,33.6167098 C3.30121044,33.1034059 2.97695822,32.5763851 2.67544766,32.0349253 C3.85874821,31.9136383 4.21527894,30.4163216 5.86881857,30.5303891 C5.78225349,30.1354845 5.70889326,29.7348043 5.65167228,29.3305143 C3.74870786,29.2048956 3.31734969,30.7845143 2.06655774,30.8516553 C1.8009937,30.2935907 1.55743773,29.7239751 1.33955784,29.1413644 L5.5012838,27.5790725 L5.49248058,27.0729881 C5.49248058,26.7668828 5.50201741,26.4636654 5.51889026,26.1633357 C3.37603788,26.1142433 2.72386542,27.9241628 0.872253159,27.7451201 C0.702057421,27.1697289 0.55313615,26.5863962 0.430624562,25.9936783 C2.77081597,26.2788471 3.61959385,24.342587 5.72503251,24.3440309 C5.82040081,23.7895761 5.94437961,23.2466724 6.09623529,22.713876 C3.54403281,22.6048621 2.65343959,24.7894718 0.162859715,24.383016 C0.0975691087,23.8754877 0.0513521625,23.3621838 0.0234752743,22.8445483 C2.91900363,23.1629266 4.00473507,20.8202107 6.64130181,21.1068234 C6.889993,20.4866715 7.17903231,19.8867341 7.50475174,19.309177 C4.19913968,18.7373955 3.07672813,21.4576894 0,21.0396824 C0.332321851,9.36508803 10.0547534,0 22,0 C33.9452466,0 43.6676781,9.36508803 44,21.0425702 C40.9225383,21.4605772 39.8001267,18.7410053 36.4952483,19.3120648 C36.8202341,19.8896219 37.1092734,20.4895593 37.3586982,21.1097112 C39.9937977,20.8223766 41.0795292,23.1658144 43.9757911,22.8474361 Z M12.5394645,13.7631852 C10.9189369,13.1112676 8.95728434,13.2614325 7.28173664,14.3205278 C7.02204142,12.7863918 6.17619794,11.4233571 4.97162293,10.6010602 C4.8050952,10.4877146 4.63196505,10.5952846 4.6473707,10.7851565 C4.90193071,14.0266956 2.97622462,16.8415644 0.608156324,19.3156746 C3.04885125,20.0376209 5.12641302,16.9448027 8.29190703,18.0241125 C9.42752343,16.3600262 10.8697856,14.9139677 12.5394645,13.7631852 Z M22,11.8023789 C19.9569175,11.8023789 18.2454233,12.9394444 17.7971923,14.4086052 C17.762713,14.5212289 17.8096635,14.5941454 17.941712,14.5356678 C18.3092467,14.3732299 18.7274,14.2952596 19.1814999,14.2952596 C20.0148721,14.2952596 20.749208,14.5963113 21.1835006,15.1204443 C21.3757044,15.744206 21.3918437,16.6473609 21.1746974,17.1628305 C20.8313715,17.0870262 20.7081263,16.8256816 20.3728701,16.8256816 C20.0376138,16.8256816 19.7779186,17.0574264 19.2093768,17.0574264 C18.6415686,17.0574264 18.5748108,16.793194 18.2014072,16.793194 C17.7619794,16.793194 17.6812831,17.2386349 17.6812831,17.7411096 C17.6812831,19.9813091 19.773517,23.06402 21.9992664,23.06402 C24.2242822,23.06402 26.3165161,19.9813091 26.3165161,17.7411096 C26.3165161,17.2386349 26.2116109,16.8083549 25.7523759,16.7498772 C25.5234919,16.9123152 25.3129481,17.0574264 24.789156,17.0574264 C24.2206142,17.0574264 24.0636233,16.8256816 23.7291007,16.8256816 C23.3248858,16.8256816 23.3652339,17.6645833 22.885458,17.7115098 C22.5656074,16.95491 22.5502017,15.9846141 22.8157658,15.1204443 C23.250792,14.5963113 23.9843943,14.2952596 24.8177665,14.2952596 C25.2718664,14.2952596 25.6929541,14.3739518 26.0568208,14.5356678 C26.1896029,14.5941454 26.2358198,14.5205069 26.2013405,14.4086052 C25.7538431,12.9394444 24.0430825,11.8023789 22,11.8023789 Z M25.2527927,15.0164841 C24.7627463,15.0164841 24.1883357,15.1644831 23.8274034,15.5601097 C23.7899897,15.6676797 23.7899897,15.8279517 23.842809,15.9347998 C24.7312014,15.6351921 25.5146887,15.6236409 25.8932275,16.040204 C26.0949682,15.8597174 26.1595252,15.6972795 26.1595252,15.5088515 C26.1595252,15.2179071 25.8587482,15.0164841 25.2527927,15.0164841 Z M18.1067725,16.040204 C18.5351962,15.6178654 19.4382607,15.635914 20.3765381,15.9766727 C20.4176198,15.5175148 19.5820468,15.0157621 18.7472073,15.0157621 C18.1405182,15.0157621 17.8404748,15.2171851 17.8404748,15.5088515 C17.8404748,15.6972795 17.9050318,15.8604393 18.1067725,16.040204 Z M32.1875354,8.45687953 C30.5743439,8.5702251 29.1731635,9.1152946 28.0397479,10.0235031 C28.520991,8.6806829 29.1320818,7.50607619 29.9067658,6.36756679 C27.8526793,6.58198486 26.1353163,7.32125792 24.8823235,8.58466403 L23.9014972,6.05424208 L26.0788289,4.1620207 L23.1634933,3.95915378 L22,1.29084007 L20.8357731,3.95915378 L17.9204375,4.1620207 L20.0977692,6.05424208 L19.1176765,8.58466403 C17.8639501,7.32125792 16.1465871,6.58198486 14.0939678,6.36756679 C14.8671846,7.50679813 15.4782754,8.68140484 15.9595185,10.0235031 C14.8268365,9.11457265 13.4256561,8.56950316 11.8124646,8.45687953 C12.780086,9.68130053 13.6376671,10.9865795 14.2729668,12.3900432 C14.3448598,12.5481495 14.4989163,12.6001296 14.665444,12.5185497 C16.8750542,11.437796 19.3649005,10.8299172 21.9992664,10.8299172 C24.6336323,10.8299172 27.122745,11.4385179 29.3338224,12.5185497 C29.5003501,12.6001296 29.6544066,12.5481495 29.725566,12.3900432 C30.3615993,10.9865795 31.2191804,9.68130053 32.1875354,8.45687953 Z M35.7095602,18.0255564 C38.873587,16.9462466 40.9518824,20.0383429 43.3925773,19.3171184 C41.024509,16.8430083 39.0995365,14.0281395 39.3540965,10.7866004 C39.3695022,10.5967285 39.1956384,10.4884366 39.0298443,10.6025041 C37.8245357,11.424801 36.9786922,12.7878357 36.7197306,14.3219717 C35.0434493,13.2628764 33.0825303,13.1119896 31.4620027,13.7646291 C33.1294808,14.9139677 34.5724766,16.3600262 35.7095602,18.0255564 Z" id="Shape" fill="#006341"></path>
            </g>
        </g>
    </g>
</svg>