<?xml version="1.0" encoding="UTF-8"?>
<svg width="24px" height="24px" viewBox="0 0 24 24" version="1.1" xmlns="http://www.w3.org/2000/svg" xmlns:xlink="http://www.w3.org/1999/xlink">
    <!-- Generator: Sketch 51.1 (57501) - http://www.bohemiancoding.com/sketch -->
    <title>03_Iconography/Default/Calendar_Dark</title>
    <desc>Created with Sketch.</desc>
    <defs></defs>
    <g id="03_Iconography/Default/Calendar_Dark" stroke="none" stroke-width="1" fill="none" fill-rule="evenodd" opacity="0.600000024">
        <g id="Icons/Calendar">
            <rect id="Bounds" fill="#D8D8D8" opacity="0" x="0" y="0" width="24" height="24"></rect>
            <g id="Layer_1" transform="translate(4.000000, 3.000000)" stroke="#000000" stroke-linecap="round" stroke-linejoin="round">
                <g id="Group">
                    <path d="M0,17.1 L0,3.6 C0,3.0375 0.457142857,2.7 0.914285714,2.7 L14.9714286,2.7 C15.5428571,2.7 15.8857143,3.15 15.8857143,3.6 L15.8857143,17.1 L0,17.1 Z" id="Shape"></path>
                    <rect id="Rectangle-path" x="6.51428571" y="7.65" width="2.97142857" height="2.925"></rect>
                    <rect id="Rectangle-path" x="1.71428571" y="7.65" width="2.97142857" height="2.925"></rect>
                    <rect id="Rectangle-path" x="11.3142857" y="7.65" width="2.97142857" height="2.925"></rect>
                    <rect id="Rectangle-path" x="6.51428571" y="12.2625" width="2.97142857" height="2.925"></rect>
                    <rect id="Rectangle-path" x="1.71428571" y="12.2625" width="2.97142857" height="2.925"></rect>
                    <rect id="Rectangle-path" x="11.3142857" y="12.2625" width="2.97142857" height="2.925"></rect>
                    <path d="M13,2.7 L13,0.9" id="Shape"></path>
                    <path d="M2,2.7 L2,0.9" id="Shape"></path>
                    <path d="M0,5.5 L14.8571429,5.5" id="Shape"></path>
                </g>
            </g>
        </g>
    </g>
</svg>